<svg width="17" height="16" viewBox="0 0 17 16" fill="none" xmlns="http://www.w3.org/2000/svg">
<path d="M11.81 0.669723L9.95845 0.666672C7.87834 0.666672 6.53409 2.0834 6.53409 4.27616V5.94037H4.67248C4.51161 5.94037 4.38135 6.07434 4.38135 6.23959V8.65084C4.38135 8.81609 4.51176 8.9499 4.67248 8.9499H6.53409V15.0343C6.53409 15.1995 6.66435 15.3333 6.82522 15.3333H9.25409C9.41496 15.3333 9.54522 15.1994 9.54522 15.0343V8.9499H11.7219C11.8827 8.9499 12.013 8.81609 12.013 8.65084L12.0139 6.23959C12.0139 6.16024 11.9832 6.08426 11.9286 6.02811C11.8741 5.97196 11.7999 5.94037 11.7226 5.94037H9.54522V4.5296C9.54522 3.85152 9.70252 3.5073 10.5624 3.5073L11.8097 3.50684C11.9704 3.50684 12.1006 3.37287 12.1006 3.20778V0.968785C12.1006 0.803843 11.9705 0.670029 11.81 0.669723Z" fill="white"/>
</svg>
