<svg width="17" height="16" viewBox="0 0 17 16" fill="none" xmlns="http://www.w3.org/2000/svg">
<path d="M14.7553 5.25336C14.7241 4.54491 14.6095 4.05786 14.4454 3.63582C14.2761 3.18784 14.0157 2.78676 13.6744 2.45334C13.341 2.11473 12.9373 1.85162 12.4945 1.68496C12.07 1.52084 11.5855 1.40628 10.877 1.37504C10.1633 1.34116 9.9367 1.33333 8.12646 1.33333C6.31621 1.33333 6.08962 1.34116 5.37853 1.3724C4.67008 1.40363 4.18302 1.5183 3.76109 1.68231C3.313 1.85162 2.91192 2.11209 2.5785 2.45334C2.2399 2.78676 1.97689 3.19048 1.81013 3.63328C1.64601 4.05786 1.53145 4.54227 1.50021 5.25072C1.46633 5.96446 1.4585 6.19105 1.4585 8.0013C1.4585 9.81155 1.46633 10.0381 1.49757 10.7492C1.5288 11.4577 1.64347 11.9447 1.80758 12.3668C1.97689 12.8148 2.2399 13.2158 2.5785 13.5493C2.91192 13.8879 3.31565 14.151 3.75844 14.3176C4.18302 14.4817 4.66743 14.5963 5.37598 14.6276C6.08698 14.6589 6.31366 14.6666 8.12391 14.6666C9.93416 14.6666 10.1607 14.6589 10.8718 14.6276C11.5803 14.5963 12.0673 14.4817 12.4893 14.3176C13.3853 13.9712 14.0938 13.2627 14.4402 12.3668C14.6043 11.9422 14.7189 11.4577 14.7502 10.7492C14.7814 10.0381 14.7892 9.81155 14.7892 8.0013C14.7892 6.19105 14.7866 5.96446 14.7553 5.25336ZM13.5547 10.6971C13.526 11.3483 13.4166 11.6999 13.3254 11.9344C13.1014 12.5152 12.6404 12.9762 12.0595 13.2003C11.8251 13.2914 11.4709 13.4008 10.8223 13.4294C10.119 13.4607 9.90811 13.4685 8.1291 13.4685C6.35009 13.4685 6.13653 13.4607 5.43581 13.4294C4.78464 13.4008 4.43301 13.2914 4.19859 13.2003C3.90953 13.0934 3.64642 12.9241 3.43286 12.7027C3.21146 12.4865 3.04216 12.2261 2.93532 11.937C2.84416 11.7026 2.73479 11.3483 2.70619 10.6998C2.67486 9.99652 2.66712 9.7855 2.66712 8.00649C2.66712 6.22747 2.67486 6.01391 2.70619 5.31329C2.73479 4.66212 2.84416 4.31049 2.93532 4.07607C3.04216 3.78691 3.21146 3.5239 3.4355 3.31024C3.65161 3.08884 3.91208 2.91953 4.20124 2.8128C4.43566 2.72164 4.78993 2.61226 5.43845 2.58357C6.14172 2.55234 6.35274 2.5445 8.13164 2.5445C9.9133 2.5445 10.1242 2.55234 10.8249 2.58357C11.4761 2.61226 11.8277 2.72164 12.0622 2.8128C12.3512 2.91953 12.6143 3.08884 12.8279 3.31024C13.0493 3.52644 13.2186 3.78691 13.3254 4.07607C13.4166 4.31049 13.526 4.66467 13.5547 5.31329C13.5859 6.01655 13.5937 6.22747 13.5937 8.00649C13.5937 9.7855 13.5859 9.99387 13.5547 10.6971Z" fill="white"/>
<path d="M8.12645 4.57615C6.23552 4.57615 4.70131 6.11026 4.70131 8.0013C4.70131 9.89234 6.23552 11.4265 8.12645 11.4265C10.0175 11.4265 11.5516 9.89234 11.5516 8.0013C11.5516 6.11026 10.0175 4.57615 8.12645 4.57615ZM8.12645 10.2231C6.89971 10.2231 5.90465 9.22815 5.90465 8.0013C5.90465 6.77446 6.89971 5.77949 8.12645 5.77949C9.3533 5.77949 10.3483 6.77446 10.3483 8.0013C10.3483 9.22815 9.3533 10.2231 8.12645 10.2231Z" fill="white"/>
<path d="M12.4868 4.44073C12.4868 4.8823 12.1287 5.24035 11.687 5.24035C11.2455 5.24035 10.8874 4.8823 10.8874 4.44073C10.8874 3.99905 11.2455 3.64111 11.687 3.64111C12.1287 3.64111 12.4868 3.99905 12.4868 4.44073Z" fill="white"/>
</svg>
