<svg width="17" height="16" viewBox="0 0 17 16" fill="none" xmlns="http://www.w3.org/2000/svg">
<path d="M15.1016 3.84832C14.5863 4.06695 14.0334 4.21522 13.4525 4.28141C14.0456 3.94131 14.4997 3.40186 14.7149 2.76103C14.1585 3.07599 13.5443 3.30469 12.8899 3.42867C12.3659 2.8934 11.6206 2.56 10.7938 2.56C9.20776 2.56 7.92175 3.79137 7.92175 5.30923C7.92175 5.5245 7.94712 5.73476 7.99612 5.93582C5.60957 5.82104 3.49335 4.72621 2.07699 3.06258C1.8294 3.46803 1.68856 3.94045 1.68856 4.44475C1.68856 5.39886 2.19597 6.24072 2.96583 6.73325C2.49516 6.71818 2.05249 6.59421 1.66495 6.38814V6.42248C1.66495 7.75437 2.65527 8.86596 3.96839 9.11895C3.7278 9.18094 3.47411 9.21528 3.21165 9.21528C3.0262 9.21528 2.84685 9.19769 2.67101 9.16418C3.03668 10.2573 4.097 11.0523 5.35327 11.0741C4.37082 11.8112 3.13205 12.2493 1.78656 12.2493C1.55473 12.2493 1.32639 12.2359 1.10156 12.2116C2.37271 12.9932 3.8818 13.4489 5.50375 13.4489C10.7869 13.4489 13.6747 9.25885 13.6747 5.62504L13.6651 5.26904C14.2294 4.88368 14.7175 4.39952 15.1016 3.84832Z" fill="white"/>
</svg>
