<svg width="17" height="16" viewBox="0 0 17 16" fill="none" xmlns="http://www.w3.org/2000/svg">
<path fill-rule="evenodd" clip-rule="evenodd" d="M14.3618 2.74264C15.0471 2.92721 15.5875 3.46749 15.7719 4.15291C16.1147 5.40486 16.1015 8.01447 16.1015 8.01447C16.1015 8.01447 16.1015 10.6108 15.772 11.8628C15.5875 12.5481 15.0472 13.0885 14.3618 13.273C13.1097 13.6026 8.10153 13.6026 8.10153 13.6026C8.10153 13.6026 3.10643 13.6026 1.8413 13.2599C1.15588 13.0754 0.615598 12.535 0.431029 11.8497C0.101562 10.6108 0.101562 8.00128 0.101562 8.00128C0.101562 8.00128 0.101562 5.40486 0.431029 4.15291C0.615476 3.46762 1.16906 2.91403 1.84118 2.72958C3.09325 2.39999 8.10141 2.39999 8.10141 2.39999C8.10141 2.39999 13.1097 2.39999 14.3618 2.74264ZM10.6715 8.00131L6.50681 10.4V5.60262L10.6715 8.00131Z" fill="white"/>
</svg>
